<?xml version="1.0" encoding="utf-8"?>
<!-- Generator: Adobe Illustrator 19.0.0, SVG Export Plug-In . SVG Version: 6.00 Build 0)  -->
<svg version="1.1" id="Layer_1" xmlns="http://www.w3.org/2000/svg" xmlns:xlink="http://www.w3.org/1999/xlink" x="0px" y="0px"
	 viewBox="-460 261.1 38.9 38.9" style="enable-background:new -460 261.1 38.9 38.9;" xml:space="preserve">
<style type="text/css">
	.st0{fill:#FFFFFF;}
	.st1{fill:#1C7ED6;}
</style>
<g>
	<path class="st0" d="M-431.8,268.5h2.3l-2.3,3.3V268.5z"/>
	<g>
		<path class="st1" d="M-438.8,274l-5.3,8.8v-8.7l-3.9,5.7l-0.1-0.1v0.2h-5.3c0.1,0.5,0.2,1.1,0.2,1.6c0.6,2.6,2.6,4.6,5.3,5.3
			c3,0.4,6,0.6,9,0.5L-438.8,274L-438.8,274z"/>
		<polygon class="st1" points="-452.9,277.2 -450.6,277.2 -450.6,274 		"/>
	</g>
	<g>
		<path class="st1" d="M-434.4,280.3v-14.5h6.1c-0.9-2.1-2.7-3.7-4.9-4.2c-4.8-0.8-9.7-0.8-14.6,0c-2.6,0.6-4.6,2.6-5.3,5.3
			c-0.4,2.3-0.5,4.6-0.5,6.9l5.7-8.1v9.6l6.6-9.7v8.8l5.3-8.8v21.5c1-0.1,1.9-0.2,2.9-0.4c2.6-0.6,4.6-2.6,5.3-5.3
			c0.6-3.7,0.7-7.4,0.4-11.2L-434.4,280.3z"/>
		<polygon class="st1" points="-429.5,268.5 -431.8,268.5 -431.8,271.8 		"/>
	</g>
</g>
<g id="XMLID_7_">
	<path id="XMLID_8_" d="M-446.1,281.7h-9.9l9.9-14.3V281.7z M-451,279.1h2.3v-3.2L-451,279.1z"/>
</g>
<g id="XMLID_3_">
	<path id="XMLID_4_" d="M-432.5,282.2v-14.5h9.9L-432.5,282.2z M-429.9,270.4v3.3l2.3-3.3H-429.9z"/>
</g>
<g id="XMLID_1_">
	<polygon id="XMLID_2_" points="-434.3,301 -436.9,301 -436.9,275.9 -442.2,284.6 -442.2,276 -446,281.7 -448.2,280.2 -439.5,267.4 
		-439.5,276.2 -434.3,267.5 	"/>
</g>
</svg>
