<?xml version="1.0" encoding="utf-8"?>
<!-- Generator: Adobe Illustrator 19.0.0, SVG Export Plug-In . SVG Version: 6.00 Build 0)  -->
<svg version="1.1" id="Layer_1" xmlns="http://www.w3.org/2000/svg" xmlns:xlink="http://www.w3.org/1999/xlink" x="0px" y="0px"
	 viewBox="-363 247 232 68" style="enable-background:new -363 247 232 68;" xml:space="preserve">
<style type="text/css">
	.st0{fill:#FFFFFF;}
	.st1{fill:#1C7ED6;}
</style>
<title>tabler</title>
<desc>Created with Sketch.</desc>
<g>
	<path class="st0" d="M-304.9,270.1h4.4l-4.4,6.3V270.1z"/>
	<g>
		<path class="st1" d="M-318.2,280.7l-10,16.6v-16.4l-7.3,10.8l-0.2-0.1v0.3h-10.1c0.1,1,0.3,2,0.4,3c1.2,4.9,5.1,8.8,10,10
			c5.7,0.9,11.4,1.2,17.2,1V280.7z"/>
		<polygon class="st1" points="-344.9,286.8 -340.6,286.8 -340.6,280.6 		"/>
	</g>
	<g>
		<path class="st1" d="M-309.9,292.5v-27.4h11.6c-1.7-4-5.1-7-9.3-8c-9.2-1.4-18.5-1.4-27.7,0c-4.9,1.2-8.8,5.1-10,10
			c-0.7,4.3-1,8.7-1.1,13.1l10.8-15.4V283l12.5-18.5v16.7l10-16.6v40.8c1.9-0.2,3.7-0.4,5.6-0.7c4.9-1.2,8.8-5.1,10-10
			c1.1-7,1.4-14.2,0.8-21.3L-309.9,292.5z"/>
		<polygon class="st1" points="-300.6,270.1 -304.9,270.1 -304.9,276.4 		"/>
	</g>
</g>
<g id="XMLID_7_">
	<path id="XMLID_8_" d="M-333,296.4h-18.9l18.9-27V296.4z M-342.3,291.5h4.3v-6.2L-342.3,291.5z"/>
</g>
<g id="XMLID_3_">
	<path id="XMLID_4_" d="M-307.2,297.2v-27.4h18.8L-307.2,297.2z M-302.3,274.8v6.3l4.4-6.3H-302.3z"/>
</g>
<g id="XMLID_1_">
	<polygon id="XMLID_2_" points="-311,324 -316,324 -316,285.3 -325,301.9 -325,285.5 -332.6,296.3 -337,293.5 -321,269.2 
		-321,285.9 -311,269.4 	"/>
</g>
<g>
	<path d="M-265.6,279.8c1-0.1,1.4-1.3,0.8-2c-0.5-0.6-1.2-0.9-2.3-0.9c-1.3,0-2.6,0.4-3.9,1.1c-0.6,0.3-1.4,0.1-1.7-0.5l-0.8-1.5
		c-0.3-0.6-0.1-1.4,0.5-1.7c2.1-1.1,4.4-1.8,7-1.8c4.8,0,7.5,2.7,7.5,8.5v9.6c0,0.7-0.6,1.3-1.3,1.3h-2.3c-0.6,0-1.1-0.4-1.2-1
		l-0.2-1h-0.1c-1.6,1.4-3.4,2.4-5.5,2.4c-3.4,0-5.6-2.5-5.6-5.7C-274.8,282.8-272.1,280.7-265.6,279.8z M-267.3,287.9
		c1.1,0,1.9-0.4,2.7-1.2c0.3-0.2,0.4-0.6,0.4-0.9v-1.3c0-0.8-0.8-1.4-1.5-1.2c-2.8,0.6-3.8,1.6-3.8,2.9
		C-269.5,287.3-268.6,287.9-267.3,287.9z"/>
	<path d="M-252.5,272.9h2.2c0.6,0,1.1,0.5,1.2,1.1l0.2,1.4h0.2c1.6-1.6,3.2-2.9,5.7-2.9c2.1,0,3.5,0.7,4.5,2
		c0.4,0.6,1.3,0.6,1.8,0.2c1.4-1.2,2.9-2.1,4.9-2.1c4.1,0,5.9,2.9,5.9,7.6v10.5c0,0.7-0.6,1.3-1.3,1.3h-3.1c-0.7,0-1.3-0.6-1.3-1.3
		v-9.8c0-2.7-0.7-3.6-2.3-3.6c-0.8,0-1.8,0.5-2.8,1.4c-0.3,0.2-0.4,0.6-0.4,0.9v11c0,0.7-0.6,1.3-1.3,1.3h-3.1
		c-0.7,0-1.3-0.6-1.3-1.3v-9.8c0-2.7-0.7-3.6-2.3-3.6c-0.8,0-1.8,0.5-2.8,1.5c-0.2,0.2-0.4,0.6-0.4,0.9v11c0,0.7-0.6,1.3-1.3,1.3
		h-3.1c-0.7,0-1.3-0.6-1.3-1.3v-16.4C-253.8,273.4-253.2,272.9-252.5,272.9z"/>
	<path d="M-215.5,293.3v4.2c0,0.7-0.6,1.3-1.3,1.3h-3.1c-0.7,0-1.3-0.6-1.3-1.3v-23.4c0-0.7,0.6-1.3,1.3-1.3h2.3
		c0.6,0,1.1,0.4,1.2,1l0.2,0.9h0.2c1.5-1.3,3.4-2.3,5.4-2.3c4.6,0,7.4,3.8,7.4,9.6c0,6.5-3.9,10.2-8,10.2c-0.9,0-1.7-0.2-2.5-0.6
		c-0.9-0.4-1.9,0.2-1.8,1.2L-215.5,293.3C-215.5,293.2-215.5,293.3-215.5,293.3z M-212.5,287.7c1.9,0,3.5-1.7,3.5-5.6
		c0-3.4-1-5.1-3.3-5.1c-1,0-1.9,0.4-2.9,1.3c-0.2,0.2-0.4,0.6-0.4,0.9v6.6c0,0.4,0.2,0.8,0.6,1.1
		C-214.1,287.5-213.3,287.7-212.5,287.7z"/>
	<path d="M-199.3,265.1h5.6v21.1c0,1.2,0.5,1.6,1,1.6c0.2,0,0.4,0,0.7-0.1l0.5,3c0.1,0.7-0.4,1.3-1.1,1.5c-0.5,0.1-1,0.1-1.6,0.1
		c-3.8,0-5.1-2.5-5.1-6.3V265.1z"/>
	<path d="M-188.9,267.2c0-1.7,1.4-2.9,3.2-2.9c1.9,0,3.2,1.2,3.2,2.9c0,1.7-1.3,2.9-3.2,2.9C-187.5,270.1-188.9,268.9-188.9,267.2z
		 M-187.2,272.9h3.1c0.7,0,1.3,0.6,1.3,1.3v16.4c0,0.7-0.6,1.3-1.3,1.3h-3.1c-0.7,0-1.3-0.6-1.3-1.3v-16.4
		C-188.4,273.4-187.8,272.9-187.2,272.9z"/>
	<path d="M-166.9,268.2c-0.2,0.6-0.8,1-1.4,0.9c-0.3-0.1-0.6-0.1-0.8-0.1c-1.4,0-2.2,0.8-2.2,2.7v1.1h2.1c0.7,0,1.3,0.6,1.3,1.3v1.9
		c0,0.7-0.6,1.3-1.3,1.3h-0.9c-0.7,0-1.3,0.6-1.3,1.3v12c0,0.7-0.6,1.3-1.3,1.3h-3.1c-0.7,0-1.3-0.6-1.3-1.3v-12
		c0-0.7-0.6-1.3-1.3-1.3l0,0c-0.7,0-1.3-0.6-1.3-1.3v-1.7c0-0.7,0.5-1.2,1.2-1.3l1.4-0.1v-1c0-4,1.9-7.3,7-7.3
		c1.6,0,2.9,0.4,3.8,0.7L-166.9,268.2z"/>
	<path d="M-163.2,294.7c1.9,0,2.8-1,3.3-2.5l0.3-1l-6.6-16.7c-0.3-0.8,0.3-1.7,1.2-1.7h3.8l2.7,8.1c0.5,1.7,1,3.5,1.5,5.4h0.2
		c0.4-1.8,0.8-3.6,1.3-5.4l2.3-8.1h5.4l-6.6,19.1c-1.8,4.8-3.8,7.2-8.3,7.2c-1.1,0-1.9-0.2-2.7-0.4l1-4.3
		C-164.1,294.6-163.7,294.7-163.2,294.7z"/>
</g>
</svg>
